<svg xmlns:xlink="http://www.w3.org/1999/xlink" xmlns="http://www.w3.org/2000/svg" class="css-ze2te4 css-qd6ojx" viewBox="0 0 65 42.63913786745173" width="110"  height="72" ><g transform="translate(-10.18648253451843, -21.363000587547738) scale(0.16641352109858926)" class="css-11joq0" fill="#EEEEEE"><g xmlns="http://www.w3.org/2000/svg" fill="#EEEEEE"><g fill="#EEEEEE"><g fill="#EEEEEE"><path d="M256.551,384.597c-22.322,0-44.386-5.736-63.805-16.59c-9.839-5.499-18.902-12.256-26.939-20.081     c-8.29-8.073-15.469-17.272-21.34-27.342c-8.711-14.94-14.216-31.117-16.366-48.082c-1.033-8.154-1.267-16.458-0.695-24.679     c0.566-8.141,1.928-16.274,4.046-24.171c2.133-7.953,5.051-15.734,8.673-23.126c3.658-7.464,8.064-14.598,13.098-21.204     c10.474-13.743,23.489-25.11,38.686-33.788c9.97-5.699,20.621-10.054,31.655-12.941c10.702-2.801,21.753-4.22,32.847-4.22     c22.326,0,44.404,5.749,63.847,16.625c9.849,5.509,18.922,12.276,26.967,20.114c8.299,8.084,15.486,17.294,21.362,27.374     c8.713,14.906,14.222,31.07,16.371,48.042c1.033,8.155,1.267,16.459,0.694,24.684c-0.567,8.145-1.93,16.28-4.049,24.182     c-2.131,7.947-5.045,15.724-8.662,23.109c-3.651,7.458-8.051,14.586-13.076,21.182c-10.456,13.729-23.443,25.067-38.603,33.703     c-10.009,5.714-20.696,10.081-31.765,12.977C278.758,383.172,267.674,384.597,256.551,384.597z M256.411,135.62     c-21.297,0-42.359,5.605-60.907,16.208c-28.391,16.211-48.652,42.386-57.052,73.702c-8.334,31.071-3.975,63.532,12.275,91.404     c21.729,37.266,62.277,60.415,105.823,60.415c21.356,0,42.492-5.622,61.122-16.258c28.314-16.13,48.531-42.26,56.931-73.576     c8.343-31.108,3.983-63.56-12.275-91.376C340.563,158.809,299.979,135.62,256.411,135.62z" fill="#EEEEEE"></path></g><g fill="#EEEEEE"><path d="M81.061,374.44c-2.962,0-5.588-0.235-7.857-0.706c-4.951-1.026-8.437-3.2-10.357-6.462     c-0.006-0.008-0.011-0.018-0.016-0.025c-2.367-4.099-2.138-9.342,0.682-15.585c2.409-5.334,6.808-11.604,13.074-18.639     c6.053-6.791,13.904-14.37,23.337-22.522c9.389-8.113,20.368-16.819,32.635-25.875c1.609-1.189,3.879-0.848,5.067,0.763     c1.189,1.611,0.848,3.88-0.763,5.069c-24.164,17.838-43.137,34.226-54.865,47.388c-5.777,6.483-9.775,12.136-11.881,16.799     c-1.238,2.74-2.418,6.518-1.02,8.962c1.886,3.17,8.937,4.31,19.352,3.128c11.75-1.332,27.394-5.419,46.497-12.146     c39.65-13.962,89.411-37.617,140.116-66.604c44.67-25.513,86.351-53.147,117.368-77.815     c15.056-11.975,27.205-22.903,36.111-32.484c10.989-11.819,14.548-18.967,15.597-22.882c0.614-2.288,0.552-4.085-0.181-5.342     c-1.358-2.329-5.282-3.151-8.334-3.431c-5.154-0.473-12.131,0.162-20.736,1.887c-17.341,3.476-40.877,11.338-68.063,22.735     c-1.846,0.773-3.969-0.096-4.743-1.941s0.096-3.969,1.941-4.743c27.622-11.58,51.635-19.587,69.439-23.156     c9.293-1.863,16.972-2.535,22.823-1.999c6.905,0.634,11.594,2.987,13.932,6.997c1.744,2.989,2.055,6.647,0.921,10.871     c-4.521,16.867-31.968,41.482-54.197,59.161c-15.379,12.231-33.204,25.101-52.979,38.248     c-20.431,13.587-42.404,27.107-65.306,40.187c-25.806,14.754-51.388,28.149-76.033,39.814     c-23.822,11.275-45.781,20.472-65.271,27.334c-19.618,6.908-35.796,11.118-48.087,12.512     C86.302,374.272,83.561,374.44,81.061,374.44z" fill="#EEEEEE"></path></g><g fill="#EEEEEE"><path d="M233.773,193.45c-9.451,0-17.139-7.622-17.139-16.99s7.688-16.989,17.139-16.989c4.548,0,8.84,1.765,12.085,4.97     c3.259,3.219,5.054,7.488,5.054,12.019s-1.795,8.8-5.054,12.019C242.613,191.684,238.321,193.45,233.773,193.45z      M233.773,166.718c-5.454,0-9.891,4.37-9.891,9.742c0,5.371,4.437,9.742,9.891,9.742c5.454,0,9.891-4.371,9.891-9.742     C243.664,171.088,239.227,166.718,233.773,166.718z" fill="#EEEEEE"></path></g><g fill="#EEEEEE"><path d="M205.097,282.763c-6.024,0-11.689-2.324-15.954-6.547c-4.274-4.232-6.628-9.863-6.628-15.854     c0-12.337,10.13-22.373,22.582-22.373s22.582,10.036,22.582,22.373c0,5.99-2.354,11.621-6.629,15.854     C216.786,280.438,211.121,282.763,205.097,282.763z M205.097,245.238c-8.455,0-15.334,6.784-15.334,15.125     c0,8.354,6.879,15.152,15.334,15.152c8.456,0,15.334-6.798,15.334-15.152C220.431,252.021,213.553,245.238,205.097,245.238z" fill="#EEEEEE"></path></g><g fill="#EEEEEE"><path d="M300.512,248.526c-7.852,0-14.238-6.333-14.238-14.118c0-3.806,1.467-7.386,4.134-10.083     c2.687-2.719,6.274-4.216,10.104-4.216c7.868,0,14.269,6.415,14.269,14.299c0,3.735-1.479,7.267-4.168,9.945     C307.909,247.045,304.322,248.526,300.512,248.526z M300.512,227.357c-3.855,0-6.992,3.163-6.992,7.051     c0,3.788,3.137,6.871,6.992,6.871c3.871,0,7.021-3.083,7.021-6.871C307.532,230.52,304.383,227.357,300.512,227.357z" fill="#EEEEEE"></path></g></g></g></g></svg>